<?xml version="1.0" encoding="utf-8"?>
<!-- Generator: Adobe Illustrator 17.0.1, SVG Export Plug-In . SVG Version: 6.00 Build 0)  -->
<!DOCTYPE svg PUBLIC "-//W3C//DTD SVG 1.1//EN" "http://www.w3.org/Graphics/SVG/1.1/DTD/svg11.dtd">
<svg version="1.1" id="Слой_1" xmlns="http://www.w3.org/2000/svg" xmlns:xlink="http://www.w3.org/1999/xlink" x="0px" y="0px"
	 width="24px" height="29.001px" viewBox="0 0 24 29.001" enable-background="new 0 0 24 29.001" xml:space="preserve">
<path fill="#D64743" d="M9.734,1.63l0.01-0.045v19.406L3.652,14.89c-0.298-0.297-0.702-0.464-1.123-0.462
	c-0.423,0-0.823,0.164-1.121,0.462l-0.946,0.949C0.165,16.136-0.002,16.54,0,16.96c0,0.425,0.164,0.823,0.46,1.121l10.419,10.457
	c0.299,0.3,0.696,0.464,1.12,0.463c0.424,0.001,0.823-0.163,1.121-0.463l10.419-10.457C23.837,17.783,24,17.385,24,16.96
	c0.001-0.42-0.164-0.823-0.461-1.121l-0.946-0.949c-0.295-0.297-0.698-0.464-1.117-0.462c-0.421,0-0.798,0.164-1.094,0.462
	l-6.126,6.169V1.609C14.256,0.734,13.505,0,12.635,0h-1.339C10.426,0,9.734,0.756,9.734,1.63z"/>
</svg>
